<svg width="31" height="36" viewBox="0 0 31 36" fill="none" xmlns="http://www.w3.org/2000/svg">
<g clip-path="url(#clip0_1_566)">
<path d="M13.0001 30.3165C12.6683 31.387 11.6653 32.1579 10.4907 32.1579H7.96947C4.9125 32.1579 2.42188 29.6958 2.42188 26.6433V15.1932V15.1815L2.42215 15.1697C2.45231 13.8876 3.06106 12.6891 4.07634 11.9041L12.6331 5.05473C14.4783 3.47899 17.192 3.43386 19.0894 4.94901C19.0899 4.9494 19.0904 4.9498 19.0909 4.9502L27.865 11.9068L27.8739 11.9138L27.8826 11.921C28.8568 12.73 29.4219 13.928 29.4219 15.1932V26.655C29.4219 28.1193 28.8349 29.5219 27.7928 30.5538C26.7512 31.5852 25.3405 32.1615 23.8725 32.1579H23.8743V31.1579L23.8717 32.1579L13.0001 30.3165ZM13.0001 30.3165L13.1518 30.2663V29.5439V25.5205C13.1518 25.0527 13.5359 24.6609 14.0251 24.6609H17.8069C18.0408 24.6609 18.2637 24.7532 18.4269 24.9153C18.5899 25.0771 18.6801 25.2949 18.6801 25.5205V29.5406L13.0001 30.3165Z" stroke="#E6E6E6" stroke-width="2"/>
</g>
<defs>
<clipPath id="clip0_1_566">
<rect width="30" height="36" fill="white" transform="translate(0.921875)"/>
</clipPath>
</defs>
</svg>
