<svg width="32" height="36" viewBox="0 0 32 36" fill="none" xmlns="http://www.w3.org/2000/svg">
<path d="M26.2107 23.75C26.2107 24.413 25.9473 25.0489 25.4785 25.5178C25.0096 25.9866 24.3737 26.25 23.7107 26.25H8.71069L3.71069 31.25V11.25C3.71069 10.587 3.97409 9.95107 4.44293 9.48223C4.91177 9.01339 5.54765 8.75 6.21069 8.75H23.7107C24.3737 8.75 25.0096 9.01339 25.4785 9.48223C25.9473 9.95107 26.2107 10.587 26.2107 11.25V23.75Z" stroke="#E6E6E6" stroke-width="2" stroke-linecap="round" stroke-linejoin="round"/>
<rect x="15.6719" y="0.5" width="16" height="16" rx="8" fill="url(#paint0_linear_1_592)"/>
<path d="M23.2739 11.5V6.559L22.1759 6.829L21.8879 5.695L23.6969 5.155H24.6419V11.5H23.2739Z" fill="white"/>
<defs>
<linearGradient id="paint0_linear_1_592" x1="29.5978" y1="0.5" x2="18.1904" y2="16.5" gradientUnits="userSpaceOnUse">
<stop stop-color="#FF5E5E"/>
<stop offset="1" stop-color="#ED1F03"/>
</linearGradient>
</defs>
</svg>
